<svg width="25" height="24" viewBox="0 0 25 24" fill="none" xmlns="http://www.w3.org/2000/svg">
<path fill-rule="evenodd" clip-rule="evenodd" d="M18.9927 10.983L18.016 11.3466V12.3887V18.0005C18.016 18.829 17.3445 19.5005 16.516 19.5005H15.5V19.5V14C15.5 12.8954 14.6046 12 13.5 12H11.5C10.3954 12 9.5 12.8954 9.5 14V19.5V19.5005H8.49273C7.66431 19.5005 6.99273 18.829 6.99273 18.0005V12.3887V11.3456L6.01478 10.9825L4.54584 10.4372L12.5021 4.61948L20.4548 10.4387L18.9927 10.983ZM21.8481 11.5205L19.516 12.3887V18.0005C19.516 19.6574 18.1729 21.0005 16.516 21.0005H8.49273C6.83588 21.0005 5.49273 19.6574 5.49273 18.0005V12.3887L3.15219 11.5198C2.40514 11.2425 2.26672 10.2455 2.90997 9.77514L11.912 3.19278C12.2636 2.93567 12.7412 2.93575 13.0927 3.19298L22.0897 9.77631C22.7324 10.2465 22.5944 11.2427 21.8481 11.5205ZM11.5 13.5H13.5C13.7761 13.5 14 13.7239 14 14V19.5H11V14C11 13.7239 11.2239 13.5 11.5 13.5Z" fill="#E8E9EA"/>
</svg>
